# This file uses centimeters as units for non-parametric coordinates.

g default
v -9.809637 11.633138 -0.784968
v -9.828436 11.303696 1.356313
v -9.336190 12.434606 -0.741172
v -9.356423 12.080016 1.563564
v -7.748477 13.715950 -0.539638
v -8.094166 12.977297 2.150968
v -5.778209 13.701869 0.221670
v -6.545740 12.984422 2.411289
v -4.413620 12.472430 1.272878
v -4.951462 12.211614 2.267451
v -3.622442 10.841447 2.032018
v -3.717211 10.816366 2.180769
v -3.290612 9.988919 2.219349
v -3.316528 9.983818 2.258537
v -10.525695 10.907004 0.954818
v -9.266283 11.942267 -0.472094
v -11.301862 10.973199 0.443345
v -9.946312 12.087489 -1.092491
v -12.473627 10.291745 -0.183511
v -11.506778 11.466778 -2.547612
v -13.247238 9.167882 -0.955992
v -12.726446 9.838933 -3.231236
v -13.739600 7.733763 -1.973283
v -13.551493 7.923241 -3.102525
v -14.108148 6.039191 -2.712750
v -14.082844 6.055727 -2.888315
v -14.278330 5.139473 -2.865920
v -14.271852 5.142762 -2.912618
v -9.374269 11.694873 -0.562022
v -10.948565 10.655161 0.503132
v -9.200138 12.303828 0.121552
v -10.894610 11.184749 1.268015
v -8.692868 12.917886 2.326571
v -10.893687 11.195429 2.633179
v -8.592434 11.867066 4.421688
v -10.602324 10.641441 3.824646
v -9.011173 10.002610 5.526049
v -9.991339 9.625017 5.032922
v -9.410120 8.134942 6.073291
v -9.561134 8.100958 5.985106
v -9.479809 7.234414 6.314631
v -9.519851 7.227609 6.290471
v -9.232717 11.883638 -0.310359
v -11.043947 10.830669 -0.862328
v -9.859492 12.025854 1.630714
v -11.855647 10.756027 0.562166
v -10.561679 10.908239 3.406218
v -12.412493 9.870751 1.610648
v -11.372363 9.074318 4.140212
v -12.503405 8.646805 2.759071
v -12.088004 7.169136 4.263003
v -12.425678 7.092680 3.814189
v -12.333835 6.244924 4.318990
v -12.439034 6.226837 4.176362
v -12.490412 5.333054 4.438029
v -12.518154 5.329455 4.399939
v -10.627430 11.170563 -1.580462
v -9.557298 11.618769 0.249263
v -10.306809 11.910687 -2.047195
v -9.154988 12.393107 -0.077796
v -9.538966 12.627660 -3.247352
v -7.839078 13.580665 -1.220869
v -8.429386 12.490055 -4.262430
v -6.565072 13.352954 -2.967053
v -7.066833 11.657795 -4.978967
v -6.047630 11.958358 -4.512747
v -6.026303 10.232069 -5.560781
v -5.861322 10.260462 -5.499855
v -5.752512 9.389018 -5.831436
v -5.708229 9.394768 -5.815965
v -9.580955 11.973855 0.451223
v -10.079492 11.637703 -1.630226
v -10.463844 11.969871 0.749405
v -11.000437 11.608058 -1.490932
v -12.124597 11.131464 1.390449
v -12.527734 10.776410 -1.369241
v -13.313899 9.594683 1.472206
v -13.557888 9.398129 -0.936135
v -14.103582 7.820577 1.002012
v -14.200871 7.765667 -0.152975
v -14.626263 6.005513 0.607471
v -14.640089 6.000737 0.429925
v -14.820856 5.095520 0.575011
v -14.824452 5.094571 0.527898
v -10.001588 11.685556 -0.771444
v -9.649538 12.078348 1.329922
v -9.559937 12.448599 -1.073324
v -9.181012 12.871375 1.188452
v -8.427209 13.268566 -1.894302
v -7.610499 14.132894 0.653322
v -6.996837 13.221697 -2.436100
v -5.791242 14.039618 -0.492955
v -5.433550 12.440028 -2.605575
v -4.682686 12.732517 -1.770634
v -4.221187 11.039979 -2.768397
v -4.093764 11.067908 -2.647069
v -3.852524 10.203817 -2.923211
v -3.817959 10.209488 -2.891485
v -9.533663 11.584811 -0.402683
v -11.106698 11.396126 1.075129
v -9.152728 12.345016 -0.021372
v -10.845841 12.141928 1.569249
v -7.994663 13.380212 1.170920
v -10.151850 12.981431 2.929325
v -7.006761 13.163340 2.874475
v -9.016931 12.804428 4.189263
v -6.662806 11.927530 4.450734
v -7.671005 11.802818 5.011496
v -6.524312 10.309294 5.511706
v -6.682314 10.297517 5.593153
v -6.380393 9.450910 5.845173
v -6.422508 9.448524 5.866481
v -11.345851 11.034222 0.289913
v -9.347298 11.866833 0.209214
v -11.513107 11.132172 -0.621598
v -9.361994 12.028340 -0.708457
v -11.883354 10.489590 -1.992470
v -9.361310 11.449372 -2.781507
v -11.846720 9.338335 -3.131151
v -9.706409 9.890678 -4.137261
v -11.407131 7.870423 -4.166639
v -10.393343 8.026875 -4.709069
v -11.085963 6.164836 -4.918001
v -10.930979 6.178508 -5.004775
v -11.081530 5.265150 -5.148528
v -11.040468 5.267870 -5.171766
v -11.493063 11.154289 -0.769185
v -9.554617 11.546926 0.115252
v -11.350627 11.686994 -1.520423
v -9.264208 12.109603 -0.568473
v -11.109392 11.840130 -3.160251
v -8.477592 12.476843 -2.403483
v -10.521916 11.102264 -4.534392
v -8.160658 11.549548 -4.184161
v -9.612459 9.810198 -5.518921
v -8.464138 9.947526 -5.424202
v -8.944913 8.179177 -6.210027
v -8.767483 8.191540 -6.199897
v -8.819279 7.299157 -6.479598
v -8.772146 7.301633 -6.477187
v 0.569899 0.008815 0.432942
v 1.027449 0.021281 -0.022680
v 1.028932 0.021281 -0.668510
v 0.573480 0.008815 -1.126229
v -0.072109 -0.008815 -1.127712
v -0.529659 -0.021281 -0.672090
v -0.531142 -0.021281 -0.026260
v -0.075691 -0.008815 0.431459
v 0.399416 1.325278 0.343287
v 0.796638 1.397321 -0.058304
v 0.797759 1.399527 -0.627729
v 0.402121 1.330603 -1.031426
v -0.158515 1.230924 -1.032916
v -0.555737 1.158881 -0.631324
v -0.556857 1.156675 -0.061899
v -0.161220 1.225599 0.341798
v -0.103739 2.781526 0.264903
v 0.222840 2.915834 -0.085621
v 0.223299 2.919569 -0.583161
v -0.102630 2.790542 -0.936265
v -0.564024 2.604336 -0.938089
v -0.890604 2.470027 -0.587564
v -0.891063 2.466293 -0.090024
v -0.565133 2.595320 0.263080
v -0.978365 4.324155 0.198068
v -0.720601 4.488583 -0.104581
v -0.720836 4.493051 -0.534761
v -0.978931 4.334941 -0.840479
v -1.343699 4.106874 -0.842649
v -1.601463 3.942446 -0.540000
v -1.601229 3.937978 -0.109820
v -1.343133 4.096087 0.195898
v -2.259351 5.945615 0.143417
v -2.062005 6.117151 -0.114646
v -2.062796 6.121775 -0.481995
v -2.261263 5.956778 -0.743441
v -2.541144 5.718812 -0.745833
v -2.738491 5.547276 -0.487769
v -2.737699 5.542652 -0.120421
v -2.539233 5.707650 0.141026
v -3.999240 7.652662 0.101884
v -3.851745 7.816288 -0.114914
v -3.852898 7.820686 -0.423959
v -4.002025 7.663279 -0.644217
v -4.211768 7.436274 -0.646665
v -4.359263 7.272647 -0.429867
v -4.358110 7.268250 -0.120822
v -4.208984 7.425657 0.099437
v -8.403846 10.916617 0.065208
v -8.319476 11.047431 -0.087333
v -8.320812 11.050942 -0.305244
v -8.407072 10.925096 -0.460875
v -8.527725 10.743609 -0.463059
v -8.612096 10.612797 -0.310518
v -8.610760 10.609285 -0.092608
v -8.524500 10.735132 0.063023
v -10.055699 11.940845 0.070738
v -9.982703 12.063398 -0.068907
v -9.984042 12.066689 -0.268496
v -10.058932 11.948789 -0.411113
v -10.163504 11.778763 -0.413214
v -10.236501 11.656210 -0.273569
v -10.235162 11.652920 -0.073980
v -10.160272 11.770820 0.068637
vt 0.733571 0.041201
vt 0.828357 0.064164
vt 0.822134 0.105655
vt 0.720118 0.080929
vt 0.824132 0.180196
vt 0.697954 0.170498
vt 0.821293 0.250811
vt 0.712823 0.264384
vt 0.812871 0.330393
vt 0.762852 0.345435
vt 0.822295 0.413832
vt 0.814905 0.416944
vt 0.837063 0.452887
vt 0.835131 0.453777
vt 0.842929 0.082506
vt 0.930515 0.039607
vt 0.952229 0.075496
vt 0.857974 0.121669
vt 0.986090 0.169579
vt 0.861014 0.188791
vt 0.976979 0.265729
vt 0.867863 0.259040
vt 0.934557 0.349678
vt 0.883267 0.339796
vt 0.892256 0.426746
vt 0.884508 0.424677
vt 0.877797 0.466147
vt 0.875753 0.465557
vt 0.377227 0.003129
vt 0.452086 0.065641
vt 0.428153 0.100095
vt 0.347596 0.032823
vt 0.416895 0.160447
vt 0.295556 0.124584
vt 0.410495 0.220661
vt 0.301585 0.229968
vt 0.403895 0.296620
vt 0.354621 0.313946
vt 0.419597 0.378359
vt 0.412489 0.382073
vt 0.437842 0.415882
vt 0.436000 0.416944
vt 0.848129 0.587260
vt 0.828527 0.658497
vt 0.717388 0.622425
vt 0.761831 0.541828
vt 0.827278 0.725125
vt 0.702241 0.720822
vt 0.814602 0.799729
vt 0.732875 0.811910
vt 0.805290 0.883864
vt 0.780597 0.890291
vt 0.808689 0.926001
vt 0.800996 0.928265
vt 0.818587 0.966606
vt 0.816561 0.967255
vt 0.553085 0.530904
vt 0.647315 0.505756
vt 0.661682 0.545165
vt 0.560266 0.572238
vt 0.683140 0.637633
vt 0.556753 0.643949
vt 0.662478 0.733235
vt 0.555271 0.711887
vt 0.604736 0.810618
vt 0.556468 0.790663
vt 0.544885 0.876199
vt 0.537900 0.872258
vt 0.520384 0.910363
vt 0.518572 0.909248
vt 0.864308 0.559164
vt 0.961207 0.570218
vt 0.960170 0.612148
vt 0.855874 0.600263
vt 0.967758 0.690238
vt 0.841227 0.687629
vt 0.961472 0.769850
vt 0.852246 0.774498
vt 0.938906 0.853326
vt 0.886842 0.857539
vt 0.925039 0.938149
vt 0.917065 0.938999
vt 0.926967 0.979950
vt 0.924854 0.980197
vt 0.565010 0.058436
vt 0.658508 0.030689
vt 0.673961 0.069683
vt 0.573334 0.099559
vt 0.699159 0.160044
vt 0.573232 0.172554
vt 0.684333 0.255757
vt 0.575971 0.241367
vt 0.632199 0.336622
vt 0.582636 0.320144
vt 0.577313 0.406325
vt 0.570058 0.402906
vt 0.555402 0.442203
vt 0.553513 0.441224
vt 0.285287 0.488483
vt 0.380675 0.508796
vt 0.375614 0.550433
vt 0.272942 0.528580
vt 0.375075 0.628852
vt 0.249447 0.613548
vt 0.363242 0.704659
vt 0.253938 0.702627
vt 0.338311 0.784964
vt 0.286181 0.788257
vt 0.324888 0.869069
vt 0.316925 0.870020
vt 0.327776 0.910773
vt 0.325669 0.911069
vt 0.558807 0.390530
vt 0.465476 0.418835
vt 0.449794 0.379931
vt 0.550236 0.349464
vt 0.427927 0.285572
vt 0.554326 0.279446
vt 0.444188 0.192723
vt 0.552632 0.206548
vt 0.490421 0.111993
vt 0.541241 0.124061
vt 0.535150 0.036619
vt 0.542833 0.038916
vt 0.550581 -0.002391
vt 0.552609 -0.001750
vt 0.402887 0.539854
vt 0.499102 0.523909
vt 0.509603 0.564517
vt 0.406049 0.581690
vt 0.525520 0.654476
vt 0.398980 0.656289
vt 0.509162 0.744470
vt 0.400637 0.731307
vt 0.464530 0.825140
vt 0.413468 0.814141
vt 0.421818 0.901465
vt 0.414075 0.899378
vt 0.407514 0.940896
vt 0.405469 0.940313
vt 0.063391 0.023696
vt 0.064388 0.100318
vt 0.033392 0.102811
vt 0.027264 0.027977
vt 0.100384 0.024576
vt 0.095112 0.100724
vt 0.136095 0.031985
vt 0.125849 0.104751
vt 0.169048 0.042755
vt 0.156995 0.111132
vt 0.200089 0.052078
vt 0.188837 0.117523
vt 0.231305 0.056821
vt 0.221252 0.122154
vt 0.264339 0.057869
vt 0.253591 0.125495
vt 0.299217 0.060040
vt 0.285027 0.130365
vt 0.067368 0.188725
vt 0.040068 0.190790
vt 0.094829 0.188301
vt 0.122529 0.189358
vt 0.150606 0.191631
vt 0.179055 0.194648
vt 0.207503 0.198049
vt 0.235364 0.202043
vt 0.262360 0.207513
vt 0.074053 0.288494
vt 0.050356 0.290731
vt 0.097995 0.287307
vt 0.122080 0.286818
vt 0.146235 0.287060
vt 0.170365 0.288164
vt 0.194252 0.290214
vt 0.217710 0.293213
vt 0.240958 0.297002
vt 0.083638 0.403525
vt 0.063427 0.405753
vt 0.103999 0.401904
vt 0.124406 0.400671
vt 0.144775 0.399949
vt 0.165045 0.400002
vt 0.185145 0.400976
vt 0.205076 0.402717
vt 0.225078 0.404722
vt 0.096738 0.538363
vt 0.079796 0.540573
vt 0.113754 0.536585
vt 0.130766 0.535087
vt 0.147739 0.533981
vt 0.164681 0.533501
vt 0.181582 0.533730
vt 0.198433 0.534419
vt 0.215357 0.534951
vt 0.126740 0.841310
vt 0.114748 0.842566
vt 0.138726 0.839744
vt 0.150710 0.837676
vt 0.162746 0.835598
vt 0.174864 0.834273
vt 0.187012 0.834153
vt 0.199115 0.834941
vt 0.211165 0.835526
vt 0.139205 0.948221
vt 0.128209 0.949499
vt 0.150164 0.946676
vt 0.160944 0.944685
vt 0.171499 0.942704
vt 0.181931 0.941433
vt 0.192434 0.941257
vt 0.203167 0.941847
vt 0.214130 0.942136
vn -0.860552 0.504520 0.070067
vn -0.860552 0.504520 0.070067
vn -0.695221 0.710240 0.110572
vn -0.703217 0.702567 0.109019
vn -0.351892 0.912307 0.209449
vn -0.372096 0.905476 0.204102
vn 0.098640 0.938024 0.332238
vn 0.089278 0.940058 0.329122
vn 0.473664 0.761959 0.441657
vn 0.471574 0.763728 0.440838
vn 0.667016 0.545558 0.507402
vn 0.666938 0.545688 0.507365
vn 0.738095 0.405668 0.539119
vn 0.738095 0.405668 0.539119
vn -0.216335 0.871035 0.441019
vn -0.216335 0.871035 0.441019
vn -0.438854 0.859551 0.261877
vn -0.457296 0.855032 0.244543
vn -0.680260 0.728806 0.078032
vn -0.690409 0.719946 0.070808
vn -0.847933 0.528113 -0.045894
vn -0.849348 0.525761 -0.046735
vn -0.927516 0.360634 -0.098270
vn -0.927726 0.360064 -0.098375
vn -0.959722 0.255797 -0.116200
vn -0.959729 0.255767 -0.116203
vn -0.971438 0.204313 -0.120686
vn -0.971438 0.204313 -0.120686
vn -0.675947 0.627353 -0.386683
vn -0.675947 0.627353 -0.386683
vn -0.628202 0.765872 -0.137119
vn -0.636034 0.753787 -0.165124
vn -0.584626 0.782759 0.213308
vn -0.589037 0.787625 0.180781
vn -0.540938 0.660825 0.520285
vn -0.541114 0.666178 0.513228
vn -0.525095 0.477244 0.704637
vn -0.525016 0.478908 0.703566
vn -0.525241 0.334793 0.782327
vn -0.525233 0.334888 0.782292
vn -0.530050 0.257490 0.807927
vn -0.530050 0.257490 0.807927
vn -0.443740 0.871881 -0.207165
vn -0.567536 0.821388 0.056789
vn -0.559528 0.828029 0.036017
vn -0.443740 0.871882 -0.207165
vn -0.684420 0.641985 0.345578
vn -0.681536 0.647963 0.340078
vn -0.749282 0.454761 0.481424
vn -0.748918 0.455963 0.480852
vn -0.780885 0.317922 0.537722
vn -0.780870 0.317988 0.537704
vn -0.795552 0.237840 0.557252
vn -0.795525 0.238019 0.557214
vn -0.799337 0.210696 0.562732
vn -0.799337 0.210696 0.562732
vn -0.777422 0.540077 0.322386
vn -0.777422 0.540077 0.322386
vn -0.652717 0.733202 0.190721
vn -0.643975 0.742941 0.182577
vn -0.415745 0.905832 -0.081397
vn -0.398327 0.911712 -0.100582
vn -0.104750 0.898463 -0.426369
vn -0.098455 0.895299 -0.434450
vn 0.125717 0.706157 -0.696805
vn 0.126909 0.704216 -0.698552
vn 0.231386 0.498842 -0.835235
vn 0.231424 0.498709 -0.835304
vn 0.264274 0.371629 -0.889973
vn 0.264274 0.371629 -0.889973
vn -0.053966 0.987724 -0.146591
vn -0.053966 0.987724 -0.146591
vn -0.365878 0.928142 -0.068451
vn -0.358284 0.930942 -0.070570
vn -0.651775 0.758412 -0.000703
vn -0.648425 0.761277 -0.001457
vn -0.840983 0.539322 0.043346
vn -0.840547 0.540009 0.043260
vn -0.928693 0.365617 0.062080
vn -0.928628 0.365783 0.062069
vn -0.963533 0.258636 0.068649
vn -0.963530 0.258644 0.068649
vn -0.975975 0.206186 0.070434
vn -0.975975 0.206186 0.070434
vn -0.856281 0.514338 0.047315
vn -0.856281 0.514338 0.047315
vn -0.704201 0.709619 -0.023270
vn -0.694967 0.718538 -0.026918
vn -0.394433 0.900572 -0.182737
vn -0.372830 0.907551 -0.193260
vn 0.027932 0.919836 -0.391307
vn 0.037128 0.917230 -0.396625
vn 0.364665 0.738035 -0.567735
vn 0.366600 0.736089 -0.569014
vn 0.530541 0.524930 -0.665564
vn 0.530609 0.524792 -0.665618
vn 0.588152 0.390531 -0.708211
vn 0.588152 0.390531 -0.708211
vn -0.594416 0.578194 -0.558893
vn -0.594416 0.578194 -0.558893
vn -0.470747 0.789577 -0.393656
vn -0.474119 0.785409 -0.397926
vn -0.239868 0.968132 -0.072001
vn -0.246551 0.965728 -0.081125
vn 0.044538 0.947166 0.317636
vn 0.042060 0.948488 0.314010
vn 0.259084 0.741686 0.618690
vn 0.258578 0.742516 0.617906
vn 0.362401 0.523771 0.770927
vn 0.362383 0.523829 0.770897
vn 0.398779 0.389373 0.830280
vn 0.398779 0.389373 0.830280
vn -0.373455 0.912567 0.166589
vn -0.373455 0.912567 0.166589
vn -0.399085 0.906422 -0.138312
vn -0.399493 0.902671 -0.159969
vn -0.434109 0.773900 -0.461116
vn -0.435567 0.766486 -0.471996
vn -0.460757 0.562896 -0.686186
vn -0.461057 0.560850 -0.687658
vn -0.477794 0.383656 -0.790266
vn -0.477851 0.383147 -0.790479
vn -0.486880 0.270200 -0.830626
vn -0.486883 0.270173 -0.830633
vn -0.491584 0.213890 -0.844154
vn -0.491584 0.213890 -0.844154
vn -0.380953 0.786767 0.485668
vn -0.380953 0.786767 0.485668
vn -0.290738 0.935890 0.198949
vn -0.286178 0.939898 0.186262
vn -0.170257 0.961698 -0.214823
vn -0.166409 0.959335 -0.228002
vn -0.056002 0.799238 -0.598400
vn -0.055297 0.797113 -0.601293
vn 0.004817 0.569422 -0.822031
vn 0.004919 0.568708 -0.822525
vn 0.027747 0.393253 -0.919011
vn 0.027749 0.393211 -0.919030
vn 0.033657 0.297137 -0.954242
vn 0.033657 0.297137 -0.954242
vn 0.913939 0.163708 0.371370
vn 0.894905 0.249600 0.369927
vn 0.392114 0.147518 0.908012
vn 0.397785 0.113786 0.910396
vn 0.914902 0.165173 -0.368336
vn 0.895780 0.252464 -0.365841
vn 0.401179 0.117493 -0.908433
vn 0.394979 0.154800 -0.905554
vn -0.358762 0.045800 -0.932305
vn -0.350919 0.004768 -0.936394
vn -0.918803 -0.007819 -0.394638
vn -0.909794 -0.111064 -0.399924
vn -0.921154 -0.009504 0.389082
vn -0.911937 -0.114531 0.394023
vn -0.363550 0.041873 0.930633
vn -0.355022 -0.003109 0.934853
vn 0.833742 0.407771 0.372286
vn 0.358316 0.205442 0.910716
vn 0.833947 0.413265 -0.365712
vn 0.359401 0.219334 -0.907041
vn -0.344044 -0.077376 -0.935760
vn -0.865177 -0.304395 -0.398513
vn -0.866227 -0.310830 0.391199
vn -0.345974 -0.092206 0.933702
vn 0.755553 0.535756 0.376969
vn 0.317523 0.248601 0.915083
vn 0.754760 0.543424 -0.367461
vn 0.315996 0.267752 -0.910195
vn -0.326218 -0.146614 -0.933856
vn -0.795741 -0.457639 -0.396689
vn -0.795477 -0.466216 0.387117
vn -0.325220 -0.166675 0.930834
vn 0.676200 0.630600 0.380917
vn 0.280673 0.278682 0.918455
vn 0.674274 0.639963 -0.368515
vn 0.276257 0.301865 -0.912447
vn -0.300166 -0.200661 -0.932542
vn -0.717184 -0.573594 -0.395774
vn -0.715571 -0.583760 0.383643
vn -0.296064 -0.224649 0.928374
vn 0.578669 0.720497 0.382134
vn 0.242870 0.310792 0.918925
vn 0.575191 0.731346 -0.366454
vn 0.234626 0.337717 -0.911536
vn -0.257269 -0.248386 -0.933872
vn -0.611840 -0.683596 -0.397930
vn -0.608550 -0.695424 0.382168
vn -0.249216 -0.276295 0.928198
vn 0.529850 0.755496 0.385337
vn 0.221602 0.317674 0.921941
vn 0.525583 0.767119 -0.367819
vn 0.211440 0.346331 -0.913974
vn -0.238524 -0.274105 -0.931651
vn -0.558992 -0.728727 -0.395583
vn -0.554846 -0.740995 0.378250
vn -0.228486 -0.303414 0.925059
vn 0.482871 0.783430 0.391246
vn 0.200154 0.317798 0.926792
vn 0.477835 0.795905 -0.371765
vn 0.188014 0.348029 -0.918437
vn -0.218431 -0.300479 -0.928440
vn -0.503266 -0.769584 -0.393019
vn -0.498246 -0.782195 0.374061
vn -0.206303 -0.330842 0.920860
s 1
g palm1Leaf1
f 1/1/1 2/2/2 4/3/3 3/4/4
f 4/3/3 6/5/5 5/6/6 3/4/4
f 6/5/5 8/7/7 7/8/8 5/6/6
f 8/7/7 10/9/9 9/10/10 7/8/8
f 10/9/9 12/11/11 11/12/12 9/10/10
f 11/12/12 12/11/11 14/13/13 13/14/14
s 2
f 15/15/15 16/16/16 18/17/17 17/18/18
f 18/17/17 20/19/19 19/20/20 17/18/18
f 20/19/19 22/21/21 21/22/22 19/20/20
f 22/21/21 24/23/23 23/24/24 21/22/22
f 24/23/23 26/25/25 25/26/26 23/24/24
f 25/26/26 26/25/25 28/27/27 27/28/28
s 3
f 29/29/29 30/30/30 32/31/31 31/32/32
f 32/31/31 34/33/33 33/34/34 31/32/32
f 34/33/33 36/35/35 35/36/36 33/34/34
f 36/35/35 38/37/37 37/38/38 35/36/36
f 38/37/37 40/39/39 39/40/40 37/38/38
f 39/40/40 40/39/39 42/41/41 41/42/42
s 4
f 44/43/43 46/44/44 45/45/45 43/46/46
f 46/44/44 48/47/47 47/48/48 45/45/45
f 48/47/47 50/49/49 49/50/50 47/48/48
f 50/49/49 52/51/51 51/52/52 49/50/50
f 51/52/52 52/51/51 54/53/53 53/54/54
f 53/54/54 54/53/53 56/55/55 55/56/56
s 5
f 57/57/57 58/58/58 60/59/59 59/60/60
f 60/59/59 62/61/61 61/62/62 59/60/60
f 62/61/61 64/63/63 63/64/64 61/62/62
f 64/63/63 66/65/65 65/66/66 63/64/64
f 66/65/65 68/67/67 67/68/68 65/66/66
f 67/68/68 68/67/67 70/69/69 69/70/70
s 6
f 71/71/71 72/72/72 74/73/73 73/74/74
f 74/73/73 76/75/75 75/76/76 73/74/74
f 76/75/75 78/77/77 77/78/78 75/76/76
f 78/77/77 80/79/79 79/80/80 77/78/78
f 80/79/79 82/81/81 81/82/82 79/80/80
f 81/82/82 82/81/81 84/83/83 83/84/84
s 7
f 85/85/85 86/86/86 88/87/87 87/88/88
f 88/87/87 90/89/89 89/90/90 87/88/88
f 90/89/89 92/91/91 91/92/92 89/90/90
f 92/91/91 94/93/93 93/94/94 91/92/92
f 94/93/93 96/95/95 95/96/96 93/94/94
f 95/96/96 96/95/95 98/97/97 97/98/98
s 8
f 99/99/99 100/100/100 102/101/101 101/102/102
f 102/101/101 104/103/103 103/104/104 101/102/102
f 104/103/103 106/105/105 105/106/106 103/104/104
f 106/105/105 108/107/107 107/108/108 105/106/106
f 108/107/107 110/109/109 109/110/110 107/108/108
f 109/110/110 110/109/109 112/111/111 111/112/112
s 9
f 113/113/113 114/114/114 116/115/115 115/116/116
f 116/115/115 118/117/117 117/118/118 115/116/116
f 118/117/117 120/119/119 119/120/120 117/118/118
f 120/119/119 122/121/121 121/122/122 119/120/120
f 122/121/121 124/123/123 123/124/124 121/122/122
f 123/124/124 124/123/123 126/125/125 125/126/126
s 10
f 127/127/127 128/128/128 130/129/129 129/130/130
f 130/129/129 132/131/131 131/132/132 129/130/130
f 132/131/131 134/133/133 133/134/134 131/132/132
f 134/133/133 136/135/135 135/136/136 133/134/134
f 136/135/135 138/137/137 137/138/138 135/136/136
f 137/138/138 138/137/137 140/139/139 139/140/140
s 11
f 142/141/141 150/142/142 149/143/143 141/144/144
f 143/145/145 151/146/146 150/142/142 142/141/141
f 144/147/147 152/148/148 151/146/146 143/145/145
f 145/149/149 153/150/150 152/148/148 144/147/147
f 146/151/151 154/152/152 153/150/150 145/149/149
f 147/153/153 155/154/154 154/152/152 146/151/151
f 148/155/155 156/156/156 155/154/154 147/153/153
f 141/157/144 149/158/143 156/156/156 148/155/155
f 150/142/142 158/159/157 157/160/158 149/143/143
f 151/146/146 159/161/159 158/159/157 150/142/142
f 152/148/148 160/162/160 159/161/159 151/146/146
f 153/150/150 161/163/161 160/162/160 152/148/148
f 154/152/152 162/164/162 161/163/161 153/150/150
f 155/154/154 163/165/163 162/164/162 154/152/152
f 156/156/156 164/166/164 163/165/163 155/154/154
f 149/158/143 157/167/158 164/166/164 156/156/156
f 158/159/157 166/168/165 165/169/166 157/160/158
f 159/161/159 167/170/167 166/168/165 158/159/157
f 160/162/160 168/171/168 167/170/167 159/161/159
f 161/163/161 169/172/169 168/171/168 160/162/160
f 162/164/162 170/173/170 169/172/169 161/163/161
f 163/165/163 171/174/171 170/173/170 162/164/162
f 164/166/164 172/175/172 171/174/171 163/165/163
f 157/167/158 165/176/166 172/175/172 164/166/164
f 166/168/165 174/177/173 173/178/174 165/169/166
f 167/170/167 175/179/175 174/177/173 166/168/165
f 168/171/168 176/180/176 175/179/175 167/170/167
f 169/172/169 177/181/177 176/180/176 168/171/168
f 170/173/170 178/182/178 177/181/177 169/172/169
f 171/174/171 179/183/179 178/182/178 170/173/170
f 172/175/172 180/184/180 179/183/179 171/174/171
f 165/176/166 173/185/174 180/184/180 172/175/172
f 174/177/173 182/186/181 181/187/182 173/178/174
f 175/179/175 183/188/183 182/186/181 174/177/173
f 176/180/176 184/189/184 183/188/183 175/179/175
f 177/181/177 185/190/185 184/189/184 176/180/176
f 178/182/178 186/191/186 185/190/185 177/181/177
f 179/183/179 187/192/187 186/191/186 178/182/178
f 180/184/180 188/193/188 187/192/187 179/183/179
f 173/185/174 181/194/182 188/193/188 180/184/180
f 182/186/181 190/195/189 189/196/190 181/187/182
f 183/188/183 191/197/191 190/195/189 182/186/181
f 184/189/184 192/198/192 191/197/191 183/188/183
f 185/190/185 193/199/193 192/198/192 184/189/184
f 186/191/186 194/200/194 193/199/193 185/190/185
f 187/192/187 195/201/195 194/200/194 186/191/186
f 188/193/188 196/202/196 195/201/195 187/192/187
f 181/194/182 189/203/190 196/202/196 188/193/188
f 190/195/189 198/204/197 197/205/198 189/196/190
f 191/197/191 199/206/199 198/204/197 190/195/189
f 192/198/192 200/207/200 199/206/199 191/197/191
f 193/199/193 201/208/201 200/207/200 192/198/192
f 194/200/194 202/209/202 201/208/201 193/199/193
f 195/201/195 203/210/203 202/209/202 194/200/194
f 196/202/196 204/211/204 203/210/203 195/201/195
f 189/203/190 197/212/198 204/211/204 196/202/196
